# xmcd
#
# Track frame offsets: 
#        150
#        17865
#        37497
#        69050
#        87110
#        124225
#        144402
#        157477
#        175205
#        206127
#        223797
#
# Disc length: 3248 seconds
#
# Revision: 1
# Processed by: cddbd v1.5.2PL0 Copyright (c) Steve Scherf et al.
# Submitted via: ExactAudioCopyFreeDBPlugin 1.0
#
DISCID=a90cae0b
DTITLE=East By Rythm  - A Little Love Will Help
DYEAR=2001
DGENRE=Funk
TTITLE0=bogie clhildren
TTITLE1=A little love will help (instrumental)
TTITLE2=Accept me
TTITLE3=Party down (instrumental)
TTITLE4=Mud rat
TTITLE5=Chuda
TTITLE6=Raw boogie Clav and guitar
TTITLE7=A little love will help
TTITLE8=Accept me (instrumental)
TTITLE9=Party down
TTITLE10=Boogie children ( instrumental)
EXTD=
EXTT0=
EXTT1=
EXTT2=
EXTT3=
EXTT4=
EXTT5=
EXTT6=
EXTT7=
EXTT8=
EXTT9=
EXTT10=
PLAYORDER=
